<?xml version="1.0" encoding="UTF-8" standalone="no"?>
<!-- Uploaded to: SVG Repo, www.svgrepo.com, Generator: SVG Repo Mixer Tools -->
<svg width="800px" height="800px" viewBox="-3 0 64 64" version="1.1" xmlns="http://www.w3.org/2000/svg" xmlns:xlink="http://www.w3.org/1999/xlink" xmlns:sketch="http://www.bohemiancoding.com/sketch/ns">
    
    <title>Amplifier 2</title>
    <desc>Created with Sketch.</desc>
    <defs>

</defs>
    <g id="Page-1" stroke="none" stroke-width="1" fill="none" fill-rule="evenodd" sketch:type="MSPage">
        <g id="Amplifier-2" sketch:type="MSArtboardGroup" transform="translate(-3.000000, 0.000000)" fill="#e65757">
            <path d="M41.8535,27.1465 C41.6585,26.9515 41.3415,26.9515 41.1465,27.1465 C40.9515,27.3415 40.9515,27.6585 41.1465,27.8535 L53.1465,39.8535 C53.2445,39.9515 53.3725,40.0005 53.4995,40.0005 C53.6275,40.0005 53.7555,39.9515 53.8535,39.8535 C54.0485,39.6585 54.0485,39.3415 53.8535,39.1465 L41.8535,27.1465 Z M49.8535,27.1465 C49.6585,26.9515 49.3415,26.9515 49.1465,27.1465 C48.9515,27.3415 48.9515,27.6585 49.1465,27.8535 L53.1465,31.8535 C53.2445,31.9515 53.3725,32.0005 53.4995,32.0005 C53.6275,32.0005 53.7555,31.9515 53.8535,31.8535 C54.0485,31.6585 54.0485,31.3415 53.8535,31.1465 L49.8535,27.1465 Z M45.8535,27.1465 C45.6585,26.9515 45.3415,26.9515 45.1465,27.1465 C44.9515,27.3415 44.9515,27.6585 45.1465,27.8535 L53.1465,35.8535 C53.2445,35.9515 53.3725,36.0005 53.4995,36.0005 C53.6275,36.0005 53.7555,35.9515 53.8535,35.8535 C54.0485,35.6585 54.0485,35.3415 53.8535,35.1465 L45.8535,27.1465 Z M32.9995,12.0005 L31.9995,12.0005 C31.4495,12.0005 30.9995,12.4505 30.9995,13.0005 C30.9995,13.5505 31.4495,14.0005 31.9995,14.0005 L32.9995,14.0005 C33.5495,14.0005 33.9995,13.5505 33.9995,13.0005 C33.9995,12.4505 33.5495,12.0005 32.9995,12.0005 L32.9995,12.0005 Z M27.9995,12.0005 L26.9995,12.0005 C26.4495,12.0005 25.9995,12.4505 25.9995,13.0005 C25.9995,13.5505 26.4495,14.0005 26.9995,14.0005 L27.9995,14.0005 C28.5495,14.0005 28.9995,13.5505 28.9995,13.0005 C28.9995,12.4505 28.5495,12.0005 27.9995,12.0005 L27.9995,12.0005 Z M32.9995,8.0005 L31.9995,8.0005 C31.4495,8.0005 30.9995,8.4505 30.9995,9.0005 C30.9995,9.5505 31.4495,10.0005 31.9995,10.0005 L32.9995,10.0005 C33.5495,10.0005 33.9995,9.5505 33.9995,9.0005 C33.9995,8.4505 33.5495,8.0005 32.9995,8.0005 L32.9995,8.0005 Z M27.9995,8.0005 L26.9995,8.0005 C26.4495,8.0005 25.9995,8.4505 25.9995,9.0005 C25.9995,9.5505 26.4495,10.0005 26.9995,10.0005 L27.9995,10.0005 C28.5495,10.0005 28.9995,9.5505 28.9995,9.0005 C28.9995,8.4505 28.5495,8.0005 27.9995,8.0005 L27.9995,8.0005 Z M14.9995,13.0005 L17.9995,13.0005 L17.9995,9.0005 L14.9995,9.0005 L14.9995,13.0005 Z M9.9995,13.0005 L12.9995,13.0005 L12.9995,9.0005 L9.9995,9.0005 L9.9995,13.0005 Z M37.4995,12.0005 C36.6715,12.0005 35.9995,12.6715 35.9995,13.5005 C35.9995,14.3285 36.6715,15.0005 37.4995,15.0005 C38.3285,15.0005 38.9995,14.3285 38.9995,13.5005 C38.9995,12.6715 38.3285,12.0005 37.4995,12.0005 L37.4995,12.0005 Z M37.4995,7.0005 C36.6715,7.0005 35.9995,7.6715 35.9995,8.5005 C35.9995,9.3285 36.6715,10.0005 37.4995,10.0005 C38.3285,10.0005 38.9995,9.3285 38.9995,8.5005 C38.9995,7.6715 38.3285,7.0005 37.4995,7.0005 L37.4995,7.0005 Z M42.4995,12.0005 C41.6715,12.0005 40.9995,12.6715 40.9995,13.5005 C40.9995,14.3285 41.6715,15.0005 42.4995,15.0005 C43.3285,15.0005 43.9995,14.3285 43.9995,13.5005 C43.9995,12.6715 43.3285,12.0005 42.4995,12.0005 L42.4995,12.0005 Z M21.9995,12.0005 C21.4485,12.0005 20.9995,11.5515 20.9995,11.0005 C20.9995,10.4485 21.4485,10.0005 21.9995,10.0005 C22.5515,10.0005 22.9995,10.4485 22.9995,11.0005 C22.9995,11.5515 22.5515,12.0005 21.9995,12.0005 L21.9995,12.0005 Z M21.9995,9.0005 C20.8955,9.0005 19.9995,9.8955 19.9995,11.0005 C19.9995,12.1045 20.8955,13.0005 21.9995,13.0005 C23.1045,13.0005 23.9995,12.1045 23.9995,11.0005 C23.9995,9.8955 23.1045,9.0005 21.9995,9.0005 L21.9995,9.0005 Z M42.4995,7.0005 C41.6715,7.0005 40.9995,7.6715 40.9995,8.5005 C40.9995,9.3285 41.6715,10.0005 42.4995,10.0005 C43.3285,10.0005 43.9995,9.3285 43.9995,8.5005 C43.9995,7.6715 43.3285,7.0005 42.4995,7.0005 L42.4995,7.0005 Z M47.4995,12.0005 C46.6715,12.0005 45.9995,12.6715 45.9995,13.5005 C45.9995,14.3285 46.6715,15.0005 47.4995,15.0005 C48.3285,15.0005 48.9995,14.3285 48.9995,13.5005 C48.9995,12.6715 48.3285,12.0005 47.4995,12.0005 L47.4995,12.0005 Z M47.4995,7.0005 C46.6715,7.0005 45.9995,7.6715 45.9995,8.5005 C45.9995,9.3285 46.6715,10.0005 47.4995,10.0005 C48.3285,10.0005 48.9995,9.3285 48.9995,8.5005 C48.9995,7.6715 48.3285,7.0005 47.4995,7.0005 L47.4995,7.0005 Z M52.4995,12.0005 C51.6715,12.0005 50.9995,12.6715 50.9995,13.5005 C50.9995,14.3285 51.6715,15.0005 52.4995,15.0005 C53.3285,15.0005 53.9995,14.3285 53.9995,13.5005 C53.9995,12.6715 53.3285,12.0005 52.4995,12.0005 L52.4995,12.0005 Z M52.4995,7.0005 C51.6715,7.0005 50.9995,7.6715 50.9995,8.5005 C50.9995,9.3285 51.6715,10.0005 52.4995,10.0005 C53.3285,10.0005 53.9995,9.3285 53.9995,8.5005 C53.9995,7.6715 53.3285,7.0005 52.4995,7.0005 L52.4995,7.0005 Z M20.9995,53.0005 L10.9995,53.0005 C10.4475,53.0005 9.9995,53.4475 9.9995,54.0005 L9.9995,56.0005 C9.9995,56.5525 10.4475,57.0005 10.9995,57.0005 L20.9995,57.0005 C21.5525,57.0005 21.9995,56.5525 21.9995,56.0005 L21.9995,54.0005 C21.9995,53.4475 21.5525,53.0005 20.9995,53.0005 L20.9995,53.0005 Z M55.9995,57.0005 C55.9995,58.1025 55.1025,59.0005 53.9995,59.0005 L9.9995,59.0005 C8.8975,59.0005 7.9995,58.1025 7.9995,57.0005 L7.9995,27.0005 C7.9995,25.8975 8.8975,25.0005 9.9995,25.0005 L53.9995,25.0005 C55.1025,25.0005 55.9995,25.8975 55.9995,27.0005 L55.9995,57.0005 Z M53.9995,24.0005 L9.9995,24.0005 C8.3435,24.0005 6.9995,25.3435 6.9995,27.0005 L6.9995,57.0005 C6.9995,58.6505 8.3505,60.0005 9.9995,60.0005 L53.9995,60.0005 C55.6505,60.0005 56.9995,58.6505 56.9995,57.0005 L56.9995,27.0005 C56.9995,25.3435 55.6565,24.0005 53.9995,24.0005 L53.9995,24.0005 Z M55.9995,15.0005 C55.9995,16.1025 55.1025,17.0005 53.9995,17.0005 L9.9995,17.0005 C8.8975,17.0005 7.9995,16.1025 7.9995,15.0005 L7.9995,7.0005 C7.9995,5.8975 8.8975,5.0005 9.9995,5.0005 L53.9995,5.0005 C55.1025,5.0005 55.9995,5.8975 55.9995,7.0005 L55.9995,15.0005 Z M53.9995,4.0005 L9.9995,4.0005 C8.3435,4.0005 6.9995,5.3435 6.9995,7.0005 L6.9995,15.0005 C6.9995,16.6505 8.3505,18.0005 9.9995,18.0005 L53.9995,18.0005 C55.6505,18.0005 56.9995,16.6505 56.9995,15.0005 L56.9995,7.0005 C56.9995,5.3435 55.6565,4.0005 53.9995,4.0005 L53.9995,4.0005 Z M58.9995,18.0005 C58.9995,19.1025 58.1025,20.0005 56.9995,20.0005 L6.9995,20.0005 C5.8975,20.0005 4.9995,19.1025 4.9995,18.0005 L4.9995,6.0005 C4.9995,3.7945 6.7945,2.0005 8.9995,2.0005 L54.9995,2.0005 C57.2055,2.0005 58.9995,3.7945 58.9995,6.0005 L58.9995,18.0005 Z M58.9995,58.0005 C58.9995,60.2055 57.2055,62.0005 54.9995,62.0005 L8.9995,62.0005 C6.7945,62.0005 4.9995,60.2055 4.9995,58.0005 L4.9995,24.0005 C4.9995,22.8975 5.8975,22.0005 6.9995,22.0005 L56.9995,22.0005 C58.1025,22.0005 58.9995,22.8975 58.9995,24.0005 L58.9995,58.0005 Z M60.9995,6.0005 C60.9995,2.7005 58.2995,0.0005 54.9995,0.0005 L8.9995,0.0005 C5.6995,0.0005 2.9995,2.7005 2.9995,6.0005 L2.9995,18.0005 C2.9995,19.1985 3.5445,20.2655 4.3865,21.0005 C3.5445,21.7345 2.9995,22.8015 2.9995,24.0005 L2.9995,58.0005 C2.9995,61.3005 5.6995,64.0005 8.9995,64.0005 L54.9995,64.0005 C58.2995,64.0005 60.9995,61.3005 60.9995,58.0005 L60.9995,24.0005 C60.9995,22.8015 60.4555,21.7345 59.6135,21.0005 C60.4555,20.2655 60.9995,19.1985 60.9995,18.0005 L60.9995,6.0005 Z" sketch:type="MSShapeGroup">

</path>
        </g>
    </g>
</svg>